<?xml version="1.0" encoding="iso-8859-1"?>
<!-- Generator: Adobe Illustrator 19.0.0, SVG Export Plug-In . SVG Version: 6.00 Build 0)  -->
<svg version="1.1" id="Capa_1" xmlns="http://www.w3.org/2000/svg" xmlns:xlink="http://www.w3.org/1999/xlink" x="0px" y="0px"
	 viewBox="0 0 368 368" style="enable-background:new 0 0 368 368;" xml:space="preserve">
<g>
	<g>
		<path d="M319.215,196.536c-1.336-2.776-4.144-4.536-7.216-4.536h-72V16c0-8.824-7.176-16-16-16h-80c-8.824,0-16,7.176-16,16v176
			h-72c-3.072,0-5.88,1.76-7.208,4.536c-1.336,2.768-0.96,6.064,0.968,8.464l127.992,160c1.52,1.896,3.816,3,6.248,3
			s4.728-1.104,6.248-3l128-160C320.167,202.6,320.543,199.312,319.215,196.536z M183.999,347.192L72.647,208h63.352
			c4.416,0,8-3.584,8-8V16l80-0.008V200c0,4.416,3.584,8,8,8h63.352L183.999,347.192z"/>
	</g>
</g>
<g>
</g>
<g>
</g>
<g>
</g>
<g>
</g>
<g>
</g>
<g>
</g>
<g>
</g>
<g>
</g>
<g>
</g>
<g>
</g>
<g>
</g>
<g>
</g>
<g>
</g>
<g>
</g>
<g>
</g>
</svg>
