<?xml version="1.0" encoding="utf-8"?>
<svg viewBox="0 -0.353 243.833 46.353" xmlns="http://www.w3.org/2000/svg">
  <defs>
    <filter x="-50%" y="-50%" width="200%" height="200%" filterUnits="objectBoundingBox" id="filter-1">
      <feOffset dx="0" dy="1" in="SourceAlpha" result="shadowOffsetOuter1"/>
      <feGaussianBlur stdDeviation="0.5" in="shadowOffsetOuter1" result="shadowBlurOuter1"/>
      <feColorMatrix values="0 0 0 0 0   0 0 0 0 0   0 0 0 0 0  0 0 0 0.168 0" in="shadowBlurOuter1" type="matrix" result="shadowMatrixOuter1"/>
      <feOffset dx="0" dy="0" in="SourceAlpha" result="shadowOffsetOuter2"/>
      <feGaussianBlur stdDeviation="0.5" in="shadowOffsetOuter2" result="shadowBlurOuter2"/>
      <feColorMatrix values="0 0 0 0 0   0 0 0 0 0   0 0 0 0 0  0 0 0 0.084 0" in="shadowBlurOuter2" type="matrix" result="shadowMatrixOuter2"/>
      <feMerge>
        <feMergeNode in="shadowMatrixOuter1"/>
        <feMergeNode in="shadowMatrixOuter2"/>
        <feMergeNode in="SourceGraphic"/>
      </feMerge>
    </filter>
  </defs>
  <g id="Google-Button" stroke="none" stroke-width="1" fill="none" fill-rule="evenodd" style="" transform="matrix(1.011704, 0, 0, 1, -0.035112, 0)">
    <g id="9-PATCH" transform="translate(-608.000000, -160.000000)"/>
    <g id="btn_google_light_normal" transform="translate(-1.000000, -1.000000)">
      <g id="button" transform="translate(4.000000, 4.000000)" filter="url(#filter-1)">
        <g id="button-bg">
          <rect width="234.258" height="41" fill="#FFFFFF" fill-rule="evenodd" rx="5.265" ry="5.265"/>
          <rect x="0" y="0" width="40" height="40" rx="2" transform="matrix(1, 0, 0, 1, 0, 0)" fill="none"/>
          <rect x="0" y="0" width="40" height="40" rx="2" transform="matrix(1, 0, 0, 1, 0, 0)" fill="none"/>
          <rect x="0" y="0" width="40" height="40" rx="2" transform="matrix(1, 0, 0, 1, 0, 0)" fill="none"/>
          <path d="M 51.356 20.192 C 49.456 20.192 47.869 19.775 46.596 18.942 C 45.323 18.109 44.366 16.969 43.726 15.522 C 43.086 14.069 42.766 12.422 42.766 10.582 L 42.766 10.302 C 42.766 8.442 43.103 6.792 43.776 5.352 C 44.443 3.905 45.403 2.762 46.656 1.922 C 47.903 1.089 49.396 0.672 51.136 0.672 C 52.363 0.672 53.483 0.865 54.496 1.252 C 55.509 1.632 56.353 2.119 57.026 2.712 L 57.026 6.802 L 54.976 6.802 L 54.706 3.802 C 54.426 3.589 54.106 3.405 53.746 3.252 C 53.386 3.105 52.986 2.995 52.546 2.922 C 52.106 2.842 51.633 2.802 51.126 2.802 C 49.879 2.802 48.826 3.122 47.966 3.762 C 47.106 4.395 46.456 5.272 46.016 6.392 C 45.569 7.519 45.346 8.815 45.346 10.282 L 45.346 10.582 C 45.346 12.169 45.583 13.525 46.056 14.652 C 46.529 15.779 47.219 16.635 48.126 17.222 C 49.039 17.815 50.146 18.112 51.446 18.112 C 52.053 18.112 52.649 18.039 53.236 17.892 C 53.816 17.745 54.296 17.552 54.676 17.312 L 54.966 14.672 L 56.976 14.672 L 56.976 18.792 C 56.263 19.232 55.409 19.575 54.416 19.822 C 53.429 20.069 52.409 20.192 51.356 20.192 ZM 65.875 20.192 C 64.568 20.192 63.445 19.885 62.505 19.272 C 61.558 18.665 60.831 17.819 60.325 16.732 C 59.811 15.652 59.555 14.419 59.555 13.032 L 59.555 12.742 C 59.555 11.355 59.811 10.119 60.325 9.032 C 60.831 7.952 61.558 7.105 62.505 6.492 C 63.445 5.872 64.558 5.562 65.845 5.562 C 67.145 5.562 68.268 5.872 69.215 6.492 C 70.155 7.105 70.881 7.952 71.395 9.032 C 71.908 10.105 72.165 11.342 72.165 12.742 L 72.165 13.032 C 72.165 14.425 71.908 15.665 71.395 16.752 C 70.881 17.832 70.158 18.675 69.225 19.282 C 68.285 19.889 67.168 20.192 65.875 20.192 Z M 65.875 18.192 C 66.688 18.192 67.371 17.969 67.925 17.522 C 68.478 17.069 68.895 16.455 69.175 15.682 C 69.455 14.902 69.595 14.019 69.595 13.032 L 69.595 12.742 C 69.595 11.749 69.455 10.865 69.175 10.092 C 68.895 9.312 68.475 8.699 67.915 8.252 C 67.361 7.805 66.671 7.582 65.845 7.582 C 65.031 7.582 64.345 7.805 63.785 8.252 C 63.231 8.699 62.815 9.312 62.535 10.092 C 62.255 10.865 62.115 11.749 62.115 12.742 L 62.115 13.032 C 62.115 14.019 62.255 14.902 62.535 15.682 C 62.815 16.455 63.235 17.069 63.795 17.522 C 64.355 17.969 65.048 18.192 65.875 18.192 ZM 80.96 19.922 L 74.14 19.922 L 74.14 18.282 L 76.27 17.912 L 76.27 7.842 L 74.14 7.482 L 74.14 5.822 L 78.56 5.822 L 78.74 7.922 C 79.214 7.175 79.804 6.595 80.51 6.182 C 81.217 5.769 82.024 5.562 82.93 5.562 C 84.45 5.562 85.627 6.009 86.46 6.902 C 87.294 7.789 87.71 9.162 87.71 11.022 L 87.71 17.912 L 89.83 18.282 L 89.83 19.922 L 83.02 19.922 L 83.02 18.282 L 85.14 17.912 L 85.14 11.072 C 85.14 9.832 84.897 8.952 84.41 8.432 C 83.917 7.912 83.167 7.652 82.16 7.652 C 81.42 7.652 80.767 7.829 80.2 8.182 C 79.627 8.535 79.174 9.022 78.84 9.642 L 78.84 17.912 L 80.96 18.282 L 80.96 19.922 ZM 96.098 20.142 C 95.058 20.142 94.232 19.835 93.618 19.222 C 93.005 18.609 92.698 17.629 92.698 16.282 L 92.698 7.722 L 90.468 7.722 L 90.468 5.822 L 92.698 5.822 L 92.698 2.422 L 95.268 2.422 L 95.268 5.822 L 98.328 5.822 L 98.328 7.722 L 95.268 7.722 L 95.268 16.282 C 95.268 16.962 95.402 17.462 95.668 17.782 C 95.942 18.109 96.302 18.272 96.748 18.272 C 97.055 18.272 97.395 18.242 97.768 18.182 C 98.142 18.129 98.432 18.079 98.638 18.032 L 98.988 19.712 C 98.615 19.825 98.158 19.925 97.618 20.012 C 97.078 20.099 96.572 20.142 96.098 20.142 ZM 107.36 19.922 L 100.54 19.922 L 100.54 18.282 L 102.67 17.912 L 102.67 7.842 L 100.54 7.482 L 100.54 5.822 L 105.23 5.822 L 105.23 17.912 L 107.36 18.282 L 107.36 19.922 Z M 105.23 2.342 L 102.54 2.342 L 102.54 -0.408 L 105.23 -0.408 L 105.23 2.342 ZM 115.946 19.922 L 109.126 19.922 L 109.126 18.282 L 111.256 17.912 L 111.256 7.842 L 109.126 7.482 L 109.126 5.822 L 113.546 5.822 L 113.726 7.922 C 114.199 7.175 114.789 6.595 115.496 6.182 C 116.203 5.769 117.009 5.562 117.916 5.562 C 119.436 5.562 120.613 6.009 121.446 6.902 C 122.279 7.789 122.696 9.162 122.696 11.022 L 122.696 17.912 L 124.816 18.282 L 124.816 19.922 L 118.006 19.922 L 118.006 18.282 L 120.126 17.912 L 120.126 11.072 C 120.126 9.832 119.883 8.952 119.396 8.432 C 118.903 7.912 118.153 7.652 117.146 7.652 C 116.406 7.652 115.753 7.829 115.186 8.182 C 114.613 8.535 114.159 9.022 113.826 9.642 L 113.826 17.912 L 115.946 18.282 L 115.946 19.922 ZM 132.314 20.192 C 130.781 20.192 129.584 19.702 128.724 18.722 C 127.864 17.742 127.434 16.212 127.434 14.132 L 127.434 7.842 L 125.824 7.482 L 125.824 5.822 L 127.434 5.822 L 130.004 5.822 L 130.004 14.162 C 130.004 15.662 130.224 16.695 130.664 17.262 C 131.111 17.829 131.804 18.112 132.744 18.112 C 133.651 18.112 134.404 17.925 135.004 17.552 C 135.597 17.185 136.047 16.662 136.354 15.982 L 136.354 7.842 L 134.464 7.482 L 134.464 5.822 L 136.354 5.822 L 138.914 5.822 L 138.914 17.912 L 140.534 18.282 L 140.534 19.922 L 136.614 19.922 L 136.444 17.842 C 135.997 18.595 135.424 19.175 134.724 19.582 C 134.024 19.989 133.221 20.192 132.314 20.192 ZM 148.756 20.192 C 147.45 20.192 146.316 19.895 145.356 19.302 C 144.39 18.709 143.643 17.882 143.116 16.822 C 142.59 15.762 142.326 14.535 142.326 13.142 L 142.326 12.572 C 142.326 11.232 142.603 10.035 143.156 8.982 C 143.71 7.929 144.443 7.095 145.356 6.482 C 146.276 5.869 147.28 5.562 148.366 5.562 C 149.633 5.562 150.693 5.822 151.546 6.342 C 152.406 6.862 153.053 7.595 153.486 8.542 C 153.92 9.482 154.136 10.592 154.136 11.872 L 154.136 13.472 L 144.986 13.472 L 144.946 13.542 C 144.966 14.442 145.126 15.242 145.426 15.942 C 145.726 16.642 146.16 17.192 146.726 17.592 C 147.286 17.992 147.963 18.192 148.756 18.192 C 149.623 18.192 150.386 18.069 151.046 17.822 C 151.7 17.569 152.266 17.225 152.746 16.792 L 153.746 18.462 C 153.24 18.949 152.573 19.359 151.746 19.692 C 150.913 20.025 149.916 20.192 148.756 20.192 Z M 145.036 11.402 L 145.066 11.462 L 151.566 11.462 L 151.566 11.122 C 151.566 10.449 151.446 9.845 151.206 9.312 C 150.973 8.779 150.62 8.355 150.146 8.042 C 149.673 7.735 149.08 7.582 148.366 7.582 C 147.793 7.582 147.27 7.749 146.796 8.082 C 146.33 8.415 145.943 8.869 145.636 9.442 C 145.336 10.015 145.136 10.669 145.036 11.402 ZM 169.967 19.922 L 167.767 19.922 L 164.047 7.662 L 162.477 7.482 L 162.477 5.822 L 168.297 5.822 L 168.297 7.482 L 166.567 7.762 L 168.507 14.792 L 168.947 16.452 L 169.027 16.452 L 169.607 14.792 L 172.667 5.822 L 174.827 5.822 L 177.747 14.762 L 178.367 16.742 L 178.447 16.742 L 179.067 14.762 L 181.027 7.752 L 179.257 7.482 L 179.257 5.822 L 184.957 5.822 L 184.957 7.482 L 183.387 7.702 L 179.737 19.922 L 177.307 19.922 L 174.447 11.452 L 173.777 9.182 L 173.697 9.202 L 173.027 11.452 L 169.967 19.922 ZM 193.241 19.922 L 186.421 19.922 L 186.421 18.282 L 188.551 17.912 L 188.551 7.842 L 186.421 7.482 L 186.421 5.822 L 191.111 5.822 L 191.111 17.912 L 193.241 18.282 L 193.241 19.922 Z M 191.111 2.342 L 188.421 2.342 L 188.421 -0.408 L 191.111 -0.408 L 191.111 2.342 ZM 199.987 20.142 C 198.947 20.142 198.12 19.835 197.507 19.222 C 196.893 18.609 196.587 17.629 196.587 16.282 L 196.587 7.722 L 194.357 7.722 L 194.357 5.822 L 196.587 5.822 L 196.587 2.422 L 199.157 2.422 L 199.157 5.822 L 202.217 5.822 L 202.217 7.722 L 199.157 7.722 L 199.157 16.282 C 199.157 16.962 199.29 17.462 199.557 17.782 C 199.83 18.109 200.19 18.272 200.637 18.272 C 200.943 18.272 201.283 18.242 201.657 18.182 C 202.03 18.129 202.32 18.079 202.527 18.032 L 202.877 19.712 C 202.503 19.825 202.047 19.925 201.507 20.012 C 200.967 20.099 200.46 20.142 199.987 20.142 ZM 211.008 19.922 L 204.198 19.922 L 204.198 18.282 L 206.318 17.912 L 206.318 1.612 L 204.198 1.252 L 204.198 -0.408 L 208.888 -0.408 L 208.888 7.702 C 209.375 7.022 209.968 6.495 210.668 6.122 C 211.375 5.749 212.158 5.562 213.018 5.562 C 214.532 5.562 215.705 6.015 216.538 6.922 C 217.372 7.822 217.788 9.212 217.788 11.092 L 217.788 17.912 L 219.908 18.282 L 219.908 19.922 L 213.098 19.922 L 213.098 18.282 L 215.218 17.912 L 215.218 11.062 C 215.218 9.895 214.968 9.035 214.468 8.482 C 213.968 7.929 213.225 7.652 212.238 7.652 C 211.532 7.652 210.892 7.819 210.318 8.152 C 209.738 8.485 209.262 8.939 208.888 9.512 L 208.888 17.912 L 211.008 18.282 L 211.008 19.922 ZM 236.945 20.192 C 235.185 20.192 233.665 19.789 232.385 18.982 C 231.098 18.169 230.105 17.039 229.405 15.592 C 228.712 14.152 228.365 12.485 228.365 10.592 L 228.365 10.282 C 228.365 8.369 228.715 6.692 229.415 5.252 C 230.115 3.819 231.072 2.699 232.285 1.892 C 233.505 1.079 234.888 0.672 236.435 0.672 C 237.908 0.672 239.162 0.842 240.195 1.182 C 241.222 1.522 242.102 1.979 242.835 2.552 L 242.835 6.382 L 240.725 6.382 L 240.445 3.632 C 240.018 3.352 239.498 3.142 238.885 3.002 C 238.265 2.855 237.535 2.782 236.695 2.782 C 235.608 2.782 234.632 3.095 233.765 3.722 C 232.892 4.349 232.205 5.222 231.705 6.342 C 231.198 7.455 230.945 8.759 230.945 10.252 L 230.945 10.592 C 230.945 12.105 231.178 13.422 231.645 14.542 C 232.112 15.669 232.792 16.542 233.685 17.162 C 234.578 17.789 235.665 18.102 236.945 18.102 C 237.812 18.102 238.545 18.025 239.145 17.872 C 239.745 17.719 240.275 17.519 240.735 17.272 L 240.735 12.822 L 237.095 12.692 L 237.095 10.802 L 243.305 10.802 L 243.305 18.152 C 242.752 18.665 241.965 19.135 240.945 19.562 C 239.925 19.982 238.592 20.192 236.945 20.192 ZM 252.594 20.192 C 251.288 20.192 250.164 19.885 249.224 19.272 C 248.278 18.665 247.551 17.819 247.044 16.732 C 246.531 15.652 246.274 14.419 246.274 13.032 L 246.274 12.742 C 246.274 11.355 246.531 10.119 247.044 9.032 C 247.551 7.952 248.278 7.105 249.224 6.492 C 250.164 5.872 251.278 5.562 252.564 5.562 C 253.864 5.562 254.988 5.872 255.934 6.492 C 256.874 7.105 257.601 7.952 258.114 9.032 C 258.628 10.105 258.884 11.342 258.884 12.742 L 258.884 13.032 C 258.884 14.425 258.628 15.665 258.114 16.752 C 257.601 17.832 256.878 18.675 255.944 19.282 C 255.004 19.889 253.888 20.192 252.594 20.192 Z M 252.594 18.192 C 253.408 18.192 254.091 17.969 254.644 17.522 C 255.198 17.069 255.614 16.455 255.894 15.682 C 256.174 14.902 256.314 14.019 256.314 13.032 L 256.314 12.742 C 256.314 11.749 256.174 10.865 255.894 10.092 C 255.614 9.312 255.194 8.699 254.634 8.252 C 254.081 7.805 253.391 7.582 252.564 7.582 C 251.751 7.582 251.064 7.805 250.504 8.252 C 249.951 8.699 249.534 9.312 249.254 10.092 C 248.974 10.865 248.834 11.749 248.834 12.742 L 248.834 13.032 C 248.834 14.019 248.974 14.902 249.254 15.682 C 249.534 16.455 249.954 17.069 250.514 17.522 C 251.074 17.969 251.768 18.192 252.594 18.192 ZM 267.696 20.192 C 266.39 20.192 265.266 19.885 264.326 19.272 C 263.38 18.665 262.653 17.819 262.146 16.732 C 261.633 15.652 261.376 14.419 261.376 13.032 L 261.376 12.742 C 261.376 11.355 261.633 10.119 262.146 9.032 C 262.653 7.952 263.38 7.105 264.326 6.492 C 265.266 5.872 266.38 5.562 267.666 5.562 C 268.966 5.562 270.09 5.872 271.036 6.492 C 271.976 7.105 272.703 7.952 273.216 9.032 C 273.73 10.105 273.986 11.342 273.986 12.742 L 273.986 13.032 C 273.986 14.425 273.73 15.665 273.216 16.752 C 272.703 17.832 271.98 18.675 271.046 19.282 C 270.106 19.889 268.99 20.192 267.696 20.192 Z M 267.696 18.192 C 268.51 18.192 269.193 17.969 269.746 17.522 C 270.3 17.069 270.716 16.455 270.996 15.682 C 271.276 14.902 271.416 14.019 271.416 13.032 L 271.416 12.742 C 271.416 11.749 271.276 10.865 270.996 10.092 C 270.716 9.312 270.296 8.699 269.736 8.252 C 269.183 7.805 268.493 7.582 267.666 7.582 C 266.853 7.582 266.166 7.805 265.606 8.252 C 265.053 8.699 264.636 9.312 264.356 10.092 C 264.076 10.865 263.936 11.749 263.936 12.742 L 263.936 13.032 C 263.936 14.019 264.076 14.902 264.356 15.682 C 264.636 16.455 265.056 17.069 265.616 17.522 C 266.176 17.969 266.87 18.192 267.696 18.192 ZM 282.608 25.612 C 281.935 25.612 281.201 25.519 280.408 25.332 C 279.621 25.145 278.928 24.892 278.328 24.572 L 278.988 22.582 C 279.468 22.835 280.035 23.042 280.688 23.202 C 281.335 23.369 281.968 23.452 282.588 23.452 C 283.735 23.452 284.575 23.132 285.108 22.492 C 285.641 21.845 285.908 20.929 285.908 19.742 L 285.908 18.402 C 285.448 18.989 284.898 19.435 284.258 19.742 C 283.611 20.042 282.871 20.192 282.038 20.192 C 280.891 20.192 279.901 19.909 279.068 19.342 C 278.235 18.775 277.595 17.982 277.148 16.962 C 276.701 15.935 276.478 14.749 276.478 13.402 L 276.478 13.132 C 276.478 11.619 276.701 10.295 277.148 9.162 C 277.595 8.022 278.235 7.139 279.068 6.512 C 279.901 5.879 280.901 5.562 282.068 5.562 C 282.955 5.562 283.731 5.735 284.398 6.082 C 285.065 6.429 285.625 6.932 286.078 7.592 L 286.308 5.822 L 288.478 5.822 L 288.478 19.742 C 288.478 20.955 288.248 22.002 287.788 22.882 C 287.335 23.755 286.671 24.429 285.798 24.902 C 284.925 25.375 283.861 25.612 282.608 25.612 Z M 282.678 18.112 C 283.451 18.112 284.098 17.935 284.618 17.582 C 285.138 17.229 285.568 16.732 285.908 16.092 L 285.908 9.602 C 285.581 9.002 285.151 8.525 284.618 8.172 C 284.091 7.825 283.451 7.652 282.698 7.652 C 281.885 7.652 281.208 7.885 280.668 8.352 C 280.121 8.819 279.715 9.462 279.448 10.282 C 279.175 11.109 279.038 12.059 279.038 13.132 L 279.038 13.402 C 279.038 14.822 279.338 15.962 279.938 16.822 C 280.538 17.682 281.451 18.112 282.678 18.112 Z M 290.218 7.462 L 288.088 7.922 L 287.078 5.822 L 290.218 5.822 L 290.218 7.462 ZM 298.184 19.922 L 291.364 19.922 L 291.364 18.282 L 293.494 17.912 L 293.494 1.612 L 291.364 1.252 L 291.364 -0.408 L 296.054 -0.408 L 296.054 17.912 L 298.184 18.282 L 298.184 19.922 ZM 306.172 20.192 C 304.865 20.192 303.732 19.895 302.772 19.302 C 301.805 18.709 301.058 17.882 300.532 16.822 C 300.005 15.762 299.742 14.535 299.742 13.142 L 299.742 12.572 C 299.742 11.232 300.018 10.035 300.572 8.982 C 301.125 7.929 301.858 7.095 302.772 6.482 C 303.692 5.869 304.695 5.562 305.782 5.562 C 307.048 5.562 308.108 5.822 308.962 6.342 C 309.822 6.862 310.468 7.595 310.902 8.542 C 311.335 9.482 311.552 10.592 311.552 11.872 L 311.552 13.472 L 302.402 13.472 L 302.362 13.542 C 302.382 14.442 302.542 15.242 302.842 15.942 C 303.142 16.642 303.575 17.192 304.142 17.592 C 304.702 17.992 305.378 18.192 306.172 18.192 C 307.038 18.192 307.802 18.069 308.462 17.822 C 309.115 17.569 309.682 17.225 310.162 16.792 L 311.162 18.462 C 310.655 18.949 309.988 19.359 309.162 19.692 C 308.328 20.025 307.332 20.192 306.172 20.192 Z M 302.452 11.402 L 302.482 11.462 L 308.982 11.462 L 308.982 11.122 C 308.982 10.449 308.862 9.845 308.622 9.312 C 308.388 8.779 308.035 8.355 307.562 8.042 C 307.088 7.735 306.495 7.582 305.782 7.582 C 305.208 7.582 304.685 7.749 304.212 8.082 C 303.745 8.415 303.358 8.869 303.052 9.442 C 302.752 10.015 302.552 10.669 302.452 11.402 Z" transform="matrix(0.6877750158309937, 0, 0, 0.7225829362869263, 7.1979780197143555, 11.827783584594727)" style="fill: rgb(117, 116, 116); white-space: pre;"/>
        </g>
      </g>
      <g id="logo_googleg_48dp" transform="translate(15.000000, 15.000000)">
        <path d="M17.64,9.20454545 C17.64,8.56636364 17.5827273,7.95272727 17.4763636,7.36363636 L9,7.36363636 L9,10.845 L13.8436364,10.845 C13.635,11.97 13.0009091,12.9231818 12.0477273,13.5613636 L12.0477273,15.8195455 L14.9563636,15.8195455 C16.6581818,14.2527273 17.64,11.9454545 17.64,9.20454545 L17.64,9.20454545 Z" id="Shape" fill="#4285F4"/>
        <path d="M9,18 C11.43,18 13.4672727,17.1940909 14.9563636,15.8195455 L12.0477273,13.5613636 C11.2418182,14.1013636 10.2109091,14.4204545 9,14.4204545 C6.65590909,14.4204545 4.67181818,12.8372727 3.96409091,10.71 L0.957272727,10.71 L0.957272727,13.0418182 C2.43818182,15.9831818 5.48181818,18 9,18 L9,18 Z" id="Shape" fill="#34A853"/>
        <path d="M3.96409091,10.71 C3.78409091,10.17 3.68181818,9.59318182 3.68181818,9 C3.68181818,8.40681818 3.78409091,7.83 3.96409091,7.29 L3.96409091,4.95818182 L0.957272727,4.95818182 C0.347727273,6.17318182 0,7.54772727 0,9 C0,10.4522727 0.347727273,11.8268182 0.957272727,13.0418182 L3.96409091,10.71 L3.96409091,10.71 Z" id="Shape" fill="#FBBC05"/>
        <path d="M9,3.57954545 C10.3213636,3.57954545 11.5077273,4.03363636 12.4404545,4.92545455 L15.0218182,2.34409091 C13.4631818,0.891818182 11.4259091,0 9,0 C5.48181818,0 2.43818182,2.01681818 0.957272727,4.95818182 L3.96409091,7.29 C4.67181818,5.16272727 6.65590909,3.57954545 9,3.57954545 L9,3.57954545 Z" id="Shape" fill="#EA4335"/>
        <path d="M0,0 L18,0 L18,18 L0,18 L0,0 Z" id="Shape"/>
      </g>
      <g id="handles_square"/>
    </g>
  </g>
</svg>