<?xml version="1.0" encoding="iso-8859-1"?>
<!-- Generator: Adobe Illustrator 19.0.0, SVG Export Plug-In . SVG Version: 6.00 Build 0)  -->
<svg version="1.1" id="Layer_1" xmlns="http://www.w3.org/2000/svg" xmlns:xlink="http://www.w3.org/1999/xlink" x="0px" y="0px"
	 viewBox="0 0 512 512" style="enable-background:new 0 0 512 512;" xml:space="preserve">
<g>
	<g>
		<path d="M256,0C114.841,0,0,114.841,0,256s114.841,256,256,256s256-114.841,256-256S397.159,0,256,0z M256,495.832
			C123.756,495.832,16.168,388.244,16.168,256S123.756,16.168,256,16.168S495.832,123.756,495.832,256S388.244,495.832,256,495.832z
			"/>
	</g>
</g>
<g>
	<g>
		<path d="M169.768,134.737c-25.26,0-45.811,20.55-45.811,45.81h16.168c0-16.344,13.298-29.642,29.642-29.642
			s29.642,13.298,29.642,29.642h16.168C215.579,155.287,195.029,134.737,169.768,134.737z"/>
	</g>
</g>
<g>
	<g>
		<path d="M342.232,134.737c-25.26,0-45.81,20.55-45.81,45.81h16.168c0-16.344,13.298-29.642,29.642-29.642
			s29.642,13.298,29.642,29.642h16.168C388.042,155.287,367.492,134.737,342.232,134.737z"/>
	</g>
</g>
<g>
	<g>
		<path d="M97.011,285.642v8.084c0,48.388,21.607,93.467,59.285,123.684c28.553,23.096,63.032,35.305,99.704,35.305
			c36.226,0,71.681-12.544,99.817-35.31c37.604-30.274,59.172-75.353,59.172-123.68v-8.084H97.011z M256,436.547
			c-30.871,0-60.011-9.636-84.663-27.931c15.685-32.33,48.277-52.911,84.663-52.911c36.344,0,68.972,20.579,84.755,52.913
			C316.322,426.668,286.466,436.547,256,436.547z M353.497,398.03c-19.086-35.857-56.246-58.493-97.497-58.493
			c-41.297,0-78.423,22.636-97.416,58.495c-27.011-25.046-43.122-59.3-45.181-96.221h285.193
			C396.54,338.686,380.461,372.935,353.497,398.03z"/>
	</g>
</g>
<g>
</g>
<g>
</g>
<g>
</g>
<g>
</g>
<g>
</g>
<g>
</g>
<g>
</g>
<g>
</g>
<g>
</g>
<g>
</g>
<g>
</g>
<g>
</g>
<g>
</g>
<g>
</g>
<g>
</g>
</svg>
