<svg version="1" xmlns="http://www.w3.org/2000/svg" width="933.333" height="933.333" viewBox="0 0 700.000000 700.000000"><path d="M339.7 87.6c-.1.1-4 .5-8.7.8-15.3 1.2-45.3 8.2-56.5 13.1-21.3 9.4-32.7 15.8-47.5 26.9-15.7 11.6-36.2 33.1-45.6 47.6-1.6 2.5-3.1 4.7-3.5 5-1.2 1-7.7 12.8-12.1 22-6.8 14.1-13.4 33.2-15.3 44.1-.3 1.9-1 5.2-1.5 7.5-.5 2.2-1.2 6.9-1.5 10.5-.4 3.5-.8 7.5-1.1 8.9-.6 3.5-.5 29.6.1 35 .3 2.5.7 6.7 1 9.5 1.5 13.5 7.4 35.9 13.2 50 5.7 13.7 16.8 33.7 23.7 42.7 1.2 1.4 3.2 4.1 4.6 5.9 4.4 5.9 10.1 12.1 21.5 23.4 12.7 12.5 17.5 19.8 20.7 31.4 1.9 7.1 2.1 10.3 2.2 50.1l.2 42.5 2.6 7.3c5.9 16.6 16.5 28.5 31.3 35.2 8.9 4.1 15.3 5.4 26.1 5.4 5.7 0 6.3.2 7.8 2.7 2.9 4.9 13 14.5 19.1 18.3 17.1 10.5 40.3 10.7 57.9.7 7.1-4.1 13.2-9.5 18-16.1l4.1-5.5 7.8-.2c4.3-.1 10.2-.7 13-1.3 20.5-4.7 38.7-22.9 43.8-43.6.8-3.3 1.3-18.1 1.4-46.4.3-45.8.6-48.5 6.7-61 2.5-4.9 6.1-9.3 14.8-18.1 18.1-18.1 24.3-25.7 36.7-44.8 3.7-5.7 13.5-25.6 15.8-32.1 5.6-15.7 9.6-30.7 11.1-41.5.3-2.8 1-7.3 1.4-10 .9-5.4.6-44.4-.4-48.5-.3-1.3-.8-4.2-1.2-6.5-.5-3.4-2.2-11.9-3.9-19-1.1-4.4-4.8-15.5-7.7-23-19.9-50.3-59.3-90.9-108.8-112.2-14.3-6.2-33.2-11.8-46-13.8-2.5-.4-5.4-.9-6.4-1.1-5.5-1-38-2.6-38.9-1.8zm-10.2 198.3l20.4 20.4 23.8-23.6 23.7-23.7 10.3 10.3 10.2 10.2-26.6 26.7-26.7 26.7V408l-2.6.1c-10.2.3-24.8.1-25.7-.4-.6-.4-.9-14.1-.8-37.4l.1-36.8-26.8-27-26.8-27.1 10.2-10.1 10.3-10.1 3.3 3.1c1.9 1.8 12.6 12.4 23.7 23.6zm78.1 181.3c.7.5 1.1 24.2.5 27.9-.1.3-26.3.6-58.3.6h-58.3l.1-13.7c0-7.5.3-14 .6-14.6.6-1 113.8-1.2 115.4-.2zm.5 58.5c.5 3.5.3 27.6-.3 27.9-.5.3-71.3.6-113.3.4h-3l.2-14.2c.1-7.9.2-14.4.2-14.6.2-.6 116.1-.1 116.2.5z"/></svg>