<?xml version="1.0" standalone="no"?>
<!DOCTYPE svg PUBLIC "-//W3C//DTD SVG 20010904//EN"
 "http://www.w3.org/TR/2001/REC-SVG-20010904/DTD/svg10.dtd">
<svg version="1.0" xmlns="http://www.w3.org/2000/svg"
 width="700.000000pt" height="700.000000pt" viewBox="0 0 700.000000 700.000000"
 preserveAspectRatio="xMidYMid meet">
<metadata>
Created by potrace 1.11, written by Peter Selinger 2001-2013
</metadata>
<g transform="translate(0.000000,700.000000) scale(0.100000,-0.100000)"
fill="#000000" stroke="none">
<path d="M3290 6994 c-19 -2 -84 -9 -145 -14 -427 -41 -845 -165 -1240 -369
-349 -180 -599 -363 -880 -645 -281 -282 -480 -557 -654 -905 -497 -992 -493
-2153 10 -3141 345 -677 880 -1208 1559 -1548 639 -320 1342 -436 2045 -336
628 89 1210 341 1702 736 670 538 1121 1305 1262 2143 36 213 45 335 45 585 0
250 -9 372 -45 585 -98 583 -347 1136 -726 1610 -190 238 -510 532 -766 704
-479 320 -976 504 -1557 577 -110 14 -537 27 -610 18z m615 -239 c996 -134
1845 -677 2380 -1525 36 -58 106 -186 155 -285 216 -437 321 -860 337 -1355
16 -517 -92 -1028 -317 -1497 -167 -349 -363 -626 -635 -899 -197 -198 -363
-332 -581 -469 -1188 -746 -2705 -657 -3798 221 -1188 956 -1561 2601 -901
3972 111 228 216 399 381 612 114 147 396 430 544 544 534 413 1135 647 1805
700 110 9 515 -3 630 -19z"/>
<path d="M2255 5154 c-11 -2 -45 -9 -75 -15 -77 -15 -205 -79 -268 -134 -115
-102 -199 -263 -209 -402 l-6 -74 109 3 109 3 7 57 c27 213 250 379 458 340
181 -33 310 -162 341 -340 l11 -63 107 3 106 3 -3 50 c-14 207 -151 410 -342
504 -110 54 -258 82 -345 65z"/>
<path d="M4560 5145 c-267 -50 -485 -293 -502 -560 l-3 -50 106 -3 107 -3 11
63 c31 178 160 307 341 340 208 39 431 -127 458 -340 l7 -57 109 -3 109 -3 -6
74 c-10 139 -94 300 -209 402 -58 50 -185 116 -260 134 -80 19 -188 21 -268 6z"/>
<path d="M1330 2961 c0 -573 243 -1137 664 -1539 346 -330 746 -523 1231 -593
131 -20 444 -17 582 5 373 58 696 192 1003 418 122 91 355 326 443 449 270
375 417 818 417 1260 l0 129 -2170 0 -2170 0 0 -129z m4120 -111 c0 -52 -34
-256 -60 -357 -85 -326 -270 -653 -498 -876 l-59 -59 -33 57 c-90 158 -265
349 -417 458 -177 126 -414 225 -628 262 -135 24 -375 24 -510 0 -214 -37
-451 -136 -628 -262 -151 -107 -326 -301 -422 -466 l-28 -48 -35 33 c-241 229
-447 589 -527 921 -24 97 -54 286 -55 335 l0 22 1950 0 c1932 0 1950 0 1950
-20z m-1693 -739 c368 -75 692 -312 867 -632 l37 -67 -83 -54 c-437 -288 -963
-391 -1472 -287 -241 49 -478 149 -698 296 l-67 45 21 41 c69 136 200 295 322
393 195 156 414 250 658 283 106 14 297 6 415 -18z"/>
</g>
</svg>
